<?xml version="1.0" ?><svg style="enable-background:new 0 0 64 64;" version="1.1" viewBox="0 0 64 64" xml:space="preserve" xmlns="http://www.w3.org/2000/svg" xmlns:xlink="http://www.w3.org/1999/xlink"><g id="rice_cooker"/><g id="kettle"/><g id="cutting_board"/><g id="mug"/><g id="scale"/><g id="rolling_pin"/><g id="spatula"/><g id="ricebowl"/><g id="bowl"/><g id="knife"><g><g><path d="M4.9501,58.0322c0.636,4.48,7.4734,5.4307,9.0117,1.483     c2.1397-5.4756,5.6794-7.9472,10.9129-9.9833c1.4622-0.5704,2.4577-2.0672,1.5382-4.7635     c-0.1106-0.3319-1.0266-1.4484-0.3526-2.1571l2.1605-2.2538l-1.2237-2.5753l-2.1017-0.6049l-4.5352,4.7462     C14.7533,47.7827,4.3451,53.7699,4.9501,58.0322L4.9501,58.0322z" style="fill-rule:evenodd;clip-rule:evenodd;fill:#E67D40;"/></g><g><path d="M5.4444,59.5186c1.7422,3.1526,7.1692,3.4568,8.5174-0.0035     c2.1397-5.4756,5.6794-7.9472,10.9129-9.9833c1.4622-0.5704,2.4577-2.0672,1.5382-4.7635     c-0.1106-0.3319-1.0266-1.4484-0.3526-2.1571l2.1605-2.2538l-1.9254-1.8425l-3.1352,3.2356     c-0.681,0.6983,0.2385,1.8217,0.3526,2.1536c0.916,2.6963-0.0795,4.1966-1.5417,4.7635     c-5.2335,2.0395-7.7949,3.5329-9.9312,9.0085C11.0339,60.2514,7.7638,60.7388,5.4444,59.5186L5.4444,59.5186z" style="fill-rule:evenodd;clip-rule:evenodd;fill:#D15F1E;"/></g><g><path d="M28.2207,40.3574l4.6078,4.4074l8.5727-8.9601     C52.0549,24.6635,61.4399,12.7651,58.5431,2.0006L24.8954,37.1772L28.2207,40.3574z" style="fill-rule:evenodd;clip-rule:evenodd;fill:#F7F7F7;"/></g><g><path d="M54.4676,6.2628c0.0933,2.4301-0.0968,4.9882-0.598,7.6257     c-1.1787,6.1739-3.9026,11.9018-7.591,16.6238c8.4171-9.5512,14.7049-19.4342,12.2645-28.5118L54.4676,6.2628z" style="fill-rule:evenodd;clip-rule:evenodd;fill:#E0E0E0;"/></g><path d="M59.5092,1.7408c-0.0937-0.3486-0.3682-0.6196-0.7178-0.709c-0.3506-0.0879-0.7207,0.0171-0.9707,0.2773L19.6379,41.2318    c-1.8808,1.9653-4.3485,3.974-6.7362,5.9169c-5.0536,4.1127-9.4188,7.6649-8.9422,11.0242    c0.417,2.9326,2.9384,4.515,5.2528,4.7826c0.2646,0.0308,0.5254,0.0459,0.7822,0.0459c2.2617,0,4.1386-1.1733,4.8983-3.122    c2.0693-5.2943,5.4921-7.5277,10.3445-9.4158c1.7812-0.6943,3.2734-2.6396,2.124-6.0131    c-0.0361-0.1089-0.1191-0.2764-0.2324-0.4756c-0.0889-0.1592-0.3281-0.5815-0.3467-0.6719l1.4688-1.5322l3.8855,3.7167    c0.1943,0.1855,0.4424,0.2773,0.6914,0.2773c0.2627,0,0.5264-0.1035,0.7226-0.3086l8.5731-8.9608    C52.9615,25.1632,62.5678,13.1093,59.5092,1.7408z M25.3361,41.9217c-1.0429,1.0962-0.248,2.5053,0.0518,3.0361    c0.0381,0.0674,0.0723,0.1245,0.0791,0.1333c0.4307,1.2632,0.6142,2.8969-0.9551,3.5087    c-5.2079,2.0263-9.1541,4.5961-11.4822,10.5525c-0.6152,1.5766-2.3232,1.9638-3.5878,1.8164    c-1.5508-0.1792-3.2353-1.2002-3.5019-3.0771c-0.3184-2.2402,4.2206-5.9335,8.2245-9.1917    c2.4345-1.9814,4.9521-4.0302,6.9188-6.0858l3.8443-4.0224l1.8781,1.7965L25.3361,41.9217z M40.6785,35.1132l-7.8817,8.2381    l-6.4872-6.2054L57.9399,4.0782C59.2612,14.0794,50.0397,25.3243,40.6785,35.1132z"/></g></g><g id="oven"/><g id="frying_pan"/><g id="buthcer_knife"/><g id="soup_spoon"/><g id="mixer"/></svg>